<?xml version="1.0" encoding="UTF-8" standalone="no"?>
<svg
   id="Ebene_1"
   data-name="Ebene 1"
   version="1.1"
   viewBox="0 0 226.19282 90.900005"
   sodipodi:docname="einzeiler-weiß.svg"
   width="226.19283"
   height="90.900002"
   inkscape:version="1.3.2 (091e20ef0f, 2023-11-25, custom)"
   xmlns:inkscape="http://www.inkscape.org/namespaces/inkscape"
   xmlns:sodipodi="http://sodipodi.sourceforge.net/DTD/sodipodi-0.dtd"
   xmlns="http://www.w3.org/2000/svg"
   xmlns:svg="http://www.w3.org/2000/svg">
  <sodipodi:namedview
     id="namedview7"
     pagecolor="#ffffff"
     bordercolor="#999999"
     borderopacity="1"
     inkscape:showpageshadow="0"
     inkscape:pageopacity="0"
     inkscape:pagecheckerboard="0"
     inkscape:deskcolor="#d1d1d1"
     inkscape:zoom="1.1124177"
     inkscape:cx="112.81734"
     inkscape:cy="44.497676"
     inkscape:window-width="3440"
     inkscape:window-height="1374"
     inkscape:window-x="1920"
     inkscape:window-y="29"
     inkscape:window-maximized="1"
     inkscape:current-layer="Ebene_1" />
  <defs
     id="defs1">
    <style
       id="style1">
      .cls-1 {
        fill: #fff;
        stroke-width: 0px;
      }
    </style>
  </defs>
  <g
     id="g4"
     transform="translate(-99.507181,-53.99)">
    <path
       class="cls-1"
       d="m 232.39,103.72 c 3.95,2.23 5.93,5.69 5.93,10.36 H 223.4 c 0,-1.56 -0.7,-2.66 -2.1,-3.31 -0.97,-0.54 -2.18,-0.81 -3.63,-0.81 -3.87,0 -5.81,0.92 -5.81,2.74 0,1.02 0.67,1.75 2.01,2.18 1.35,0.43 3.55,0.89 6.62,1.37 3.76,0.54 6.91,1.17 9.43,1.9 2.52,0.73 4.73,2.02 6.61,3.87 1.88,1.86 2.82,4.45 2.82,7.79 0,5.43 -2.03,9.3 -6.09,11.61 -4.06,2.31 -9.37,3.47 -15.93,3.47 -3.76,0 -7.31,-0.53 -10.65,-1.57 -3.33,-1.05 -6.05,-2.67 -8.14,-4.88 -2.1,-2.21 -3.15,-5 -3.15,-8.39 h 14.92 v 0.32 c 0.05,1.83 0.82,3.11 2.3,3.83 1.48,0.73 3.05,1.09 4.72,1.09 4.46,0 6.69,-1.05 6.69,-3.15 0,-1.08 -0.7,-1.85 -2.09,-2.34 -1.4,-0.49 -3.69,-0.99 -6.86,-1.53 -3.82,-0.65 -6.95,-1.34 -9.4,-2.1 -2.45,-0.75 -4.59,-2.03 -6.41,-3.83 -1.83,-1.8 -2.74,-4.32 -2.74,-7.54 0,-5.21 1.98,-8.92 5.93,-11.13 3.95,-2.21 9.1,-3.31 15.44,-3.31 5.7,0 10.53,1.12 14.48,3.35 z"
       id="path1" />
    <path
       class="cls-1"
       d="M 246.02,96.34 V 85.45 h 16.05 v 10.89 z m 0,47.58 v -42.59 h 16.05 v 42.59 z"
       id="path2" />
    <path
       class="cls-1"
       d="m 302.19,101.34 v 10.89 h -9.03 v 16.21 c 0,1.94 0.32,3.35 0.97,4.23 0.64,0.89 1.83,1.33 3.55,1.33 h 4.52 v 9.44 c -1.29,0.43 -2.96,0.78 -5,1.05 -2.04,0.27 -3.82,0.4 -5.33,0.4 -4.73,0 -8.37,-0.86 -10.93,-2.58 -2.56,-1.72 -3.83,-4.65 -3.83,-8.79 v -21.29 h -5.97 v -10.89 h 6.61 l 3.47,-12.9 h 11.93 v 12.9 h 9.03 z"
       id="path3" />
    <path
       class="cls-1"
       d="m 310.9,143.92 v -13.89 h 14.8 v 13.89 z"
       id="path4" />
  </g>
  <g
     id="g7"
     transform="translate(-99.507181,-53.99)">
    <g
       id="g6">
      <path
         class="cls-1"
         d="m 152.72,86.85 -51.69,36.31 c -2.92,2.21 -1.36,6.86 2.3,6.86 h 51.69 c 2.11,0 3.82,-1.71 3.82,-3.82 V 89.89 c 0,-3.15 -3.6,-4.95 -6.12,-3.05 z"
         id="path5" />
      <path
         class="cls-1"
         d="m 177.31,53.99 h -51.69 c -2.11,0 -3.82,1.71 -3.82,3.82 v 36.31 c 0,3.15 3.6,4.95 6.12,3.05 l 51.69,-36.31 c 2.92,-2.21 1.36,-6.86 -2.3,-6.86 z"
         id="path6" />
    </g>
    <path
       class="cls-1"
       d="m 177.5,130.04 h -9.56 c -2.04,0 -3.69,-1.65 -3.69,-3.69 v -45.6 c 0,-1.16 0.54,-2.25 1.47,-2.94 l 9.56,-6.62 c 2.52,-1.74 5.9,-0.1 5.9,2.94 v 52.22 c 0,2.04 -1.65,3.69 -3.69,3.69 z"
       id="path7" />
  </g>
</svg>
