<?xml version="1.0" encoding="UTF-8" standalone="no"?>
<svg
   id="Ebene_1"
   data-name="Ebene 1"
   version="1.1"
   viewBox="0 0 290.68609 112.85"
   sodipodi:docname="Logo_SIT_Kurzversion_Zweizeiler_farbig_beschnitten.svg"
   width="290.6861"
   height="112.85"
   inkscape:version="1.3.2 (091e20ef0f, 2023-11-25, custom)"
   xmlns:inkscape="http://www.inkscape.org/namespaces/inkscape"
   xmlns:sodipodi="http://sodipodi.sourceforge.net/DTD/sodipodi-0.dtd"
   xmlns="http://www.w3.org/2000/svg"
   xmlns:svg="http://www.w3.org/2000/svg">
  <sodipodi:namedview
     id="namedview28"
     pagecolor="#ffffff"
     bordercolor="#999999"
     borderopacity="1"
     inkscape:showpageshadow="0"
     inkscape:pageopacity="0"
     inkscape:pagecheckerboard="0"
     inkscape:deskcolor="#d1d1d1"
     inkscape:zoom="1.0677328"
     inkscape:cx="145.16741"
     inkscape:cy="55.725552"
     inkscape:window-width="3440"
     inkscape:window-height="1374"
     inkscape:window-x="1920"
     inkscape:window-y="29"
     inkscape:window-maximized="1"
     inkscape:current-layer="Ebene_1" />
  <defs
     id="defs13">
    <style
       id="style1">
      .cls-1 {
        fill: url(#Unbenannter_Verlauf);
      }

      .cls-1, .cls-2, .cls-3, .cls-4, .cls-5 {
        stroke-width: 0px;
      }

      .cls-2 {
        fill: #cfd0d0;
      }

      .cls-3 {
        fill: url(#Unbenannter_Verlauf_2);
      }

      .cls-4 {
        fill: #494948;
      }

      .cls-5 {
        fill: #76b828;
      }
    </style>
    <linearGradient
       id="Unbenannter_Verlauf"
       data-name="Unbenannter Verlauf"
       x1="76.949997"
       y1="147.81"
       x2="117.73"
       y2="55.540001"
       gradientTransform="matrix(1,0,0,-1,0,198.08)"
       gradientUnits="userSpaceOnUse">
      <stop
         offset=".06"
         stop-color="#76b728"
         id="stop1" />
      <stop
         offset=".38"
         stop-color="#78b727"
         id="stop2" />
      <stop
         offset=".51"
         stop-color="#7fba27"
         id="stop3" />
      <stop
         offset=".62"
         stop-color="#8bbe26"
         id="stop4" />
      <stop
         offset=".7"
         stop-color="#9dc424"
         id="stop5" />
      <stop
         offset=".78"
         stop-color="#b4cc22"
         id="stop6" />
      <stop
         offset=".79"
         stop-color="#bbcf22"
         id="stop7" />
    </linearGradient>
    <linearGradient
       id="Unbenannter_Verlauf_2"
       data-name="Unbenannter Verlauf 2"
       x1="118.01"
       y1="159.50999"
       x2="141.21001"
       y2="61.330002"
       gradientTransform="matrix(1,0,0,-1,0,198.08)"
       gradientUnits="userSpaceOnUse">
      <stop
         offset=".02"
         stop-color="#90bf1d"
         id="stop8" />
      <stop
         offset=".39"
         stop-color="#91bf1b"
         id="stop9" />
      <stop
         offset=".52"
         stop-color="#98c217"
         id="stop10" />
      <stop
         offset=".61"
         stop-color="#a4c610"
         id="stop11" />
      <stop
         offset=".69"
         stop-color="#b5cc06"
         id="stop12" />
      <stop
         offset=".72"
         stop-color="#c0d000"
         id="stop13" />
    </linearGradient>
  </defs>
  <g
     id="g25"
     transform="translate(-67.253916,-42.79)">
    <path
       class="cls-4"
       d="m 192.87,91.67 c 2,1.13 3,2.87 3,5.24 h -7.54 c 0,-0.79 -0.36,-1.35 -1.06,-1.67 -0.49,-0.27 -1.1,-0.41 -1.83,-0.41 -1.96,0 -2.94,0.46 -2.94,1.39 0,0.52 0.34,0.88 1.02,1.1 0.68,0.22 1.8,0.45 3.35,0.69 1.9,0.27 3.49,0.59 4.77,0.96 1.28,0.37 2.39,1.02 3.34,1.96 0.95,0.94 1.43,2.25 1.43,3.94 0,2.75 -1.02,4.7 -3.08,5.87 -2.05,1.17 -4.74,1.75 -8.05,1.75 -1.9,0 -3.7,-0.27 -5.38,-0.8 -1.69,-0.53 -3.06,-1.35 -4.12,-2.47 -1.06,-1.12 -1.59,-2.53 -1.59,-4.24 h 7.54 v 0.16 c 0.03,0.92 0.41,1.57 1.16,1.94 0.75,0.37 1.54,0.55 2.39,0.55 2.26,0 3.38,-0.53 3.38,-1.59 0,-0.54 -0.35,-0.94 -1.06,-1.18 -0.71,-0.25 -1.86,-0.5 -3.47,-0.77 -1.93,-0.33 -3.51,-0.68 -4.75,-1.06 -1.24,-0.38 -2.32,-1.03 -3.24,-1.94 -0.92,-0.91 -1.39,-2.18 -1.39,-3.81 0,-2.64 1,-4.51 3,-5.63 2,-1.12 4.6,-1.67 7.81,-1.67 2.88,0 5.32,0.57 7.32,1.69 z"
       id="path13" />
    <path
       class="cls-4"
       d="m 199.76,87.94 v -5.51 h 8.12 v 5.51 z m 0,24.06 V 90.47 h 8.12 V 112 Z"
       id="path14" />
    <path
       class="cls-4"
       d="m 228.16,90.47 v 5.51 h -4.57 v 8.2 c 0,0.98 0.16,1.69 0.49,2.14 0.33,0.45 0.92,0.67 1.79,0.67 h 2.28 v 4.77 c -0.65,0.22 -1.5,0.39 -2.53,0.53 -1.03,0.14 -1.93,0.2 -2.69,0.2 -2.39,0 -4.23,-0.44 -5.53,-1.31 -1.3,-0.87 -1.94,-2.35 -1.94,-4.44 V 95.98 h -3.02 v -5.51 h 3.34 l 1.75,-6.52 h 6.03 v 6.52 z"
       id="path15" />
    <path
       class="cls-5"
       d="m 232.56,112 v -7.05 h 7.51 V 112 Z"
       id="path16" />
    <path
       class="cls-4"
       d="m 174.16,131.08 v -5.51 h 8.12 v 5.51 z m 0,24.06 v -21.53 h 8.12 v 21.53 z"
       id="path17" />
    <path
       class="cls-4"
       d="m 207.92,135.2 c 1.25,1.39 1.87,3.38 1.87,5.99 v 13.95 h -8.12 v -12.97 c 0,-0.92 -0.24,-1.66 -0.71,-2.22 -0.47,-0.56 -1.15,-0.84 -2.02,-0.84 -1.01,0 -1.82,0.33 -2.45,0.98 -0.62,0.65 -0.94,1.46 -0.94,2.41 v 12.64 h -8.12 v -21.53 h 6.65 l 0.53,3.26 c 0.84,-1.14 1.95,-2.05 3.32,-2.73 1.37,-0.68 2.82,-1.02 4.34,-1.02 2.5,0 4.38,0.69 5.63,2.08 z"
       id="path18" />
    <path
       class="cls-4"
       d="m 232.21,134.82 c 2,1.13 3,2.87 3,5.24 h -7.54 c 0,-0.79 -0.36,-1.35 -1.06,-1.67 -0.49,-0.27 -1.1,-0.41 -1.83,-0.41 -1.96,0 -2.94,0.46 -2.94,1.39 0,0.52 0.34,0.88 1.02,1.1 0.68,0.22 1.8,0.45 3.35,0.69 1.9,0.27 3.49,0.59 4.77,0.96 1.28,0.37 2.39,1.02 3.34,1.96 0.95,0.94 1.43,2.25 1.43,3.94 0,2.75 -1.02,4.7 -3.08,5.87 -2.05,1.17 -4.74,1.75 -8.05,1.75 -1.9,0 -3.7,-0.27 -5.38,-0.8 -1.69,-0.53 -3.06,-1.35 -4.12,-2.47 -1.06,-1.12 -1.59,-2.53 -1.59,-4.24 h 7.54 v 0.16 c 0.03,0.92 0.41,1.57 1.16,1.94 0.75,0.37 1.54,0.55 2.39,0.55 2.26,0 3.38,-0.53 3.38,-1.59 0,-0.54 -0.35,-0.94 -1.06,-1.18 -0.71,-0.25 -1.86,-0.5 -3.47,-0.77 -1.93,-0.33 -3.51,-0.68 -4.75,-1.06 -1.24,-0.38 -2.32,-1.03 -3.24,-1.94 -0.92,-0.91 -1.39,-2.18 -1.39,-3.81 0,-2.64 1,-4.51 3,-5.63 2,-1.12 4.6,-1.67 7.81,-1.67 2.88,0 5.32,0.57 7.32,1.69 z"
       id="path19" />
    <path
       class="cls-4"
       d="m 253.92,133.61 v 5.51 h -4.57 v 8.2 c 0,0.98 0.16,1.69 0.49,2.14 0.33,0.45 0.92,0.67 1.79,0.67 h 2.28 v 4.77 c -0.65,0.22 -1.5,0.39 -2.53,0.53 -1.03,0.14 -1.93,0.2 -2.69,0.2 -2.39,0 -4.23,-0.44 -5.53,-1.31 -1.3,-0.87 -1.94,-2.35 -1.94,-4.44 v -10.76 h -3.02 v -5.51 h 3.34 l 1.75,-6.52 h 6.03 v 6.52 z"
       id="path20" />
    <path
       class="cls-4"
       d="m 257.95,131.08 v -5.51 h 8.12 v 5.51 z m 0,24.06 v -21.53 h 8.12 v 21.53 z"
       id="path21" />
    <path
       class="cls-4"
       d="m 285.6,133.61 v 5.51 h -4.57 v 8.2 c 0,0.98 0.16,1.69 0.49,2.14 0.33,0.45 0.92,0.67 1.79,0.67 h 2.28 v 4.77 c -0.65,0.22 -1.5,0.39 -2.53,0.53 -1.03,0.14 -1.93,0.2 -2.69,0.2 -2.39,0 -4.23,-0.44 -5.53,-1.31 -1.3,-0.87 -1.94,-2.35 -1.94,-4.44 v -10.76 h -3.02 v -5.51 h 3.34 l 1.75,-6.52 H 281 v 6.52 z"
       id="path22" />
    <path
       class="cls-4"
       d="m 304.97,155.14 -0.53,-3.26 c -0.84,1.17 -1.95,2.09 -3.32,2.75 -1.37,0.67 -2.82,1 -4.34,1 -2.5,0 -4.38,-0.69 -5.63,-2.08 -1.25,-1.39 -1.87,-3.38 -1.87,-5.99 v -13.95 h 8.12 v 12.97 c 0,0.92 0.24,1.66 0.71,2.22 0.48,0.56 1.15,0.84 2.02,0.84 1.01,0 1.82,-0.33 2.45,-0.98 0.62,-0.65 0.94,-1.45 0.94,-2.41 v -12.64 h 8.12 v 21.53 z"
       id="path23" />
    <path
       class="cls-4"
       d="m 330.91,133.61 v 5.51 h -4.57 v 8.2 c 0,0.98 0.16,1.69 0.49,2.14 0.33,0.45 0.92,0.67 1.8,0.67 h 2.28 v 4.77 c -0.65,0.22 -1.5,0.39 -2.53,0.53 -1.03,0.14 -1.93,0.2 -2.69,0.2 -2.39,0 -4.23,-0.44 -5.53,-1.31 -1.3,-0.87 -1.94,-2.35 -1.94,-4.44 v -10.76 h -3.02 v -5.51 h 3.35 l 1.75,-6.52 h 6.04 v 6.52 z"
       id="path24" />
    <path
       class="cls-4"
       d="m 354.82,135.9 c 2.08,1.85 3.12,4.68 3.12,8.48 v 1.39 h -16.15 c 0,1.55 0.35,2.72 1.04,3.51 0.69,0.79 1.79,1.18 3.28,1.18 1.36,0 2.36,-0.29 3,-0.86 0.64,-0.57 0.96,-1.33 0.96,-2.28 h 7.87 c 0,2.61 -0.99,4.65 -2.97,6.12 -1.99,1.47 -4.88,2.2 -8.69,2.2 -4,0 -7.09,-0.93 -9.3,-2.79 -2.2,-1.86 -3.3,-4.68 -3.3,-8.46 0,-3.78 1.07,-6.5 3.22,-8.4 2.15,-1.9 5.11,-2.86 8.89,-2.86 3.78,0 6.95,0.92 9.03,2.77 z m -12.99,6.03 h 7.91 c 0,-1.11 -0.32,-2 -0.96,-2.65 -0.64,-0.65 -1.53,-0.98 -2.67,-0.98 -2.56,0 -3.98,1.21 -4.28,3.63 z"
       id="path25" />
  </g>
  <g
     id="g27"
     transform="translate(-67.253916,-42.79)">
    <path
       class="cls-1"
       d="m 126.13,79.15 -57.19,40.17 c -3.23,2.44 -1.51,7.59 2.54,7.59 h 57.19 c 2.33,0 4.22,-1.89 4.22,-4.22 V 82.52 c 0,-3.49 -3.99,-5.47 -6.77,-3.37 v 0 z"
       id="path26"
       style="fill:url(#Unbenannter_Verlauf)" />
    <path
       class="cls-3"
       d="M 153.34,42.79 H 96.15 c -2.33,0 -4.22,1.89 -4.22,4.22 v 40.17 c 0,3.49 3.99,5.47 6.77,3.37 l 57.19,-40.17 c 3.23,-2.44 1.51,-7.59 -2.54,-7.59 v 0 z"
       id="path27"
       style="fill:url(#Unbenannter_Verlauf_2)" />
  </g>
  <path
     class="cls-2"
     d="m 86.296084,84.14 h -10.57 c -2.25,0 -4.08,-1.83 -4.08,-4.08 V 29.62 c 0,-1.28 0.6,-2.49 1.62,-3.26 l 10.57,-7.33 c 2.79,-1.92 6.53,-0.11 6.53,3.26 v 57.77 c 0,2.25 -1.83,4.08 -4.08,4.08 z"
     id="path28" />
</svg>
