<svg viewBox="0 0 128 128" xmlns="http://www.w3.org/2000/svg">
<path d="M 109.70108,128 H 9.1494585 C 6.6849579,128 4.5285199,127.10662 2.7109507,125.28905 0.89338147,123.47148 0,121.34585 0,118.85054 V 27.448375 c 0,-2.4645 0.89338147,-4.620938 2.7109507,-6.438507 1.8175692,-1.81757 3.9432009,-2.710951 6.4385078,-2.710951 h 9.1494585 v -6.869795 c 0,-3.1422387 1.109025,-5.8223831 3.357882,-8.0712399 C 23.905656,1.1090253 26.5858,0 29.728039,0 h 4.559326 c 3.142238,0 5.822382,1.1090253 8.071239,3.3578821 2.248857,2.2488568 3.357882,4.9290012 3.357882,8.0712399 v 6.869795 h 27.417569 v -6.869795 c 0,-3.1422387 1.109026,-5.8223831 3.357882,-8.0712399 C 78.740794,1.1090253 81.420939,0 84.563177,0 h 4.559326 c 3.142238,0 5.822383,1.1090253 8.071239,3.3578821 2.248857,2.2488568 3.357878,4.9290012 3.357878,8.0712399 v 6.869795 h 9.14946 c 2.4645,0 4.62094,0.893381 6.43851,2.710951 1.81757,1.817569 2.71095,3.943201 2.71095,6.438507 v 34.16414 l -9.24188,9.241877 H 61.73574 v 47.996148 h 47.99615 V 91.309747 l 9.14946,-9.149458 v 36.690251 c 0,2.4645 -0.89338,4.62094 -2.71095,6.43851 C 114.32202,127.10662 112.19639,128 109.70108,128 Z M 57.145608,98.302768 H 34.287365 v 20.547772 h 22.858243 z m -27.417569,0 H 9.1494585 V 118.85054 H 29.728039 Z M 87.551384,96.63923 121.93117,62.259446 128,68.328279 87.551384,108.7769 70.700361,91.925872 76.769194,85.85704 Z M 57.145608,70.854392 H 34.287365 v 22.858243 h 22.858243 z m -27.417569,0 H 9.1494585 V 93.712635 H 29.728039 Z M 109.70108,45.716486 H 89.122503 v 20.57858 h 20.578577 z m -25.137903,0 H 61.704934 v 20.57858 h 22.858243 z m -27.417569,0 H 34.287365 v 20.57858 h 22.858243 z m -27.417569,0 H 9.1494585 v 20.57858 H 29.728039 Z M 89.153309,9.1802647 h -4.590132 c -0.616125,0 -1.170638,0.2156438 -1.601925,0.6777377 -0.462094,0.4620936 -0.677738,0.9858006 -0.677738,1.6019256 v 20.57858 c 0,0.616125 0.215644,1.170638 0.677738,1.601925 0.462093,0.462094 0.9858,0.677738 1.601925,0.677738 h 4.559326 c 0.616125,0 1.139832,-0.215644 1.601925,-0.677738 0.462094,-0.462094 0.677738,-0.9858 0.677738,-1.601925 v -20.57858 c 0,-0.616125 -0.215644,-1.170638 -0.677738,-1.6019256 C 90.293141,9.3959085 89.769434,9.1802647 89.153309,9.1802647 Z m -54.865944,0 h -4.559326 c -0.616126,0 -1.139832,0.2156438 -1.601926,0.6777377 -0.462094,0.4620936 -0.677738,0.9858006 -0.677738,1.6019256 v 20.57858 c 0,0.616125 0.215644,1.170638 0.677738,1.601925 0.462094,0.462094 0.9858,0.677738 1.601926,0.677738 h 4.559326 c 0.616125,0 1.170637,-0.215644 1.601925,-0.677738 0.462094,-0.462094 0.677738,-0.9858 0.677738,-1.601925 v -20.57858 c 0,-0.616125 -0.215644,-1.170638 -0.677738,-1.6019256 -0.431288,-0.4620939 -0.9858,-0.6777377 -1.601925,-0.6777377 z" />
</svg>
